<?xml version="1.0" standalone="no"?>
<!DOCTYPE svg PUBLIC "-//W3C//DTD SVG 20010904//EN"
 "http://www.w3.org/TR/2001/REC-SVG-20010904/DTD/svg10.dtd">
<svg id="boat" version="1.0" xmlns="http://www.w3.org/2000/svg"
 width="50.000000pt" height="50.000000pt" viewBox="0 0 1250.000000 1280.000000"
 preserveAspectRatio="xMidYMid meet">

<g transform="translate(0.000000,1280.000000) scale(0.100000,-0.100000)"
fill="#000000" stroke="none">
<path d="M4233 12786 c-17 -8 -40 -27 -50 -42 -17 -27 -18 -197 -23 -4649 -5
-4389 -6 -4622 -23 -4648 -9 -15 -32 -35 -50 -44 -30 -17 -143 -18 -2040 -23
l-2009 -5 -19 -24 c-42 -52 -7 -156 65 -190 42 -21 56 -21 837 -22 588 0 803
-3 829 -12 95 -33 107 -185 18 -234 -31 -17 -83 -18 -790 -23 l-757 -5 -22
-22 c-34 -33 -26 -75 41 -235 166 -390 425 -841 700 -1218 309 -425 756 -879
1165 -1184 173 -130 243 -175 298 -191 45 -13 453 -15 3479 -15 3705 0 3464
-4 3515 52 14 14 51 107 92 230 105 310 166 448 279 632 87 142 157 232 271
350 169 173 339 295 550 394 217 101 306 125 799 216 157 29 237 63 357 153
192 144 302 309 404 607 47 135 51 184 20 212 -19 17 -43 19 -283 24 -227 4
-265 7 -294 23 -78 42 -81 175 -6 224 25 16 60 18 354 23 386 6 369 1 440 127
24 43 61 105 82 137 44 69 48 99 15 121 -21 13 -432 15 -3847 13 l-3822 -3
-59 -65 c-55 -61 -60 -65 -102 -65 -54 0 -82 22 -97 74 -6 24 -10 1595 -10
4621 0 4345 -1 4587 -18 4619 -30 60 -59 73 -164 78 -67 2 -102 -1 -125 -11z
m2315 -9661 c49 -20 72 -59 72 -123 0 -62 -30 -103 -88 -120 -56 -17 -3627
-17 -3683 -1 -63 19 -84 50 -84 124 0 49 4 68 20 85 46 52 -49 49 1902 50
1613 0 1827 -2 1861 -15z m3976 1 c18 -7 43 -26 55 -42 19 -24 22 -38 19 -86
-5 -69 -29 -100 -91 -117 -31 -9 -415 -11 -1452 -9 -1293 3 -1413 4 -1440 20
-41 22 -60 61 -60 119 0 58 27 99 76 116 54 19 2847 18 2893 -1z"/>
<path d="M4825 12555 l-25 -24 0 -296 c0 -279 1 -296 19 -314 11 -11 35 -23
53 -26 18 -3 369 -5 780 -3 609 2 749 5 760 16 16 17 -8 39 -232 205 -133 98
-166 127 -168 149 -4 36 23 54 243 168 194 99 230 124 205 140 -9 6 -325 10
-813 10 l-798 0 -24 -25z"/>
<path d="M7985 11950 c-32 -12 -48 -37 -43 -67 5 -34 949 -1697 986 -1737 55
-59 -22 -56 1381 -56 1228 0 1290 1 1311 18 18 14 21 24 16 48 -4 18 -134 180
-348 434 -366 435 -384 459 -394 507 -13 64 8 86 408 420 210 175 386 323 393
328 23 20 47 65 42 79 -3 8 -23 20 -44 25 -46 13 -3677 14 -3708 1z"/>
<path d="M7506 11850 c-60 -53 -2700 -3178 -2726 -3227 l-25 -47 0 -2381 c0
-2289 1 -2382 18 -2409 40 -60 -247 -56 3731 -54 3567 3 3644 3 3665 22 12 11
21 31 21 48 0 20 -100 204 -311 576 -172 301 -717 1258 -1212 2127 -495 869
-1379 2422 -1964 3450 -596 1047 -1077 1882 -1094 1898 -38 35 -60 34 -103 -3z
m22 -463 c11 -12 516 -893 1123 -1957 959 -1685 2015 -3538 2806 -4927 196
-344 234 -417 231 -444 -4 -42 -34 -59 -103 -59 l-50 1 -877 1537 c-483 845
-1422 2491 -2087 3656 l-1209 2120 26 35 c33 42 77 70 102 64 10 -3 27 -15 38
-26z m54 -977 c346 -607 2468 -4326 3315 -5809 183 -321 333 -588 333 -592 0
-5 -56 -9 -125 -9 l-125 0 -24 38 c-13 20 -417 726 -897 1567 -480 842 -1358
2380 -1951 3419 -593 1040 -1077 1893 -1076 1897 9 24 151 180 158 173 4 -5
180 -313 392 -684z m873 -2512 c880 -1542 1740 -3048 1911 -3348 l311 -545
-125 -3 c-92 -2 -129 1 -138 10 -7 7 -426 738 -932 1623 -505 886 -1338 2345
-1850 3243 -513 898 -932 1637 -932 1644 0 13 138 178 149 178 4 0 727 -1261
1606 -2802z m-695 237 c2559 -4483 2350 -4117 2350 -4130 0 -3 -51 -5 -112 -5
l-113 0 -547 958 c-2186 3830 -2958 5185 -2958 5191 0 16 133 162 140 154 5
-4 563 -980 1240 -2168z m-1473 1652 c63 -111 2471 -4331 3163 -5544 l139
-243 -132 0 -132 0 -1160 2033 c-638 1117 -1373 2406 -1634 2862 -261 457
-476 839 -478 850 -3 14 17 45 67 103 39 45 74 82 78 82 4 0 44 -64 89 -143z
m-390 -299 c17 -29 339 -593 716 -1253 376 -660 1047 -1837 1492 -2615 444
-778 831 -1458 861 -1510 30 -52 54 -98 54 -102 0 -4 -57 -8 -127 -8 l-128 0
-144 253 c-79 138 -554 970 -1054 1847 -501 877 -1124 1968 -1384 2424 -260
457 -472 833 -471 838 4 11 142 177 148 178 3 0 19 -24 37 -52z m-346 -370 c6
-13 661 -1161 1455 -2553 793 -1392 1446 -2538 1450 -2547 6 -17 -3 -18 -108
-18 l-114 0 -181 318 c-710 1244 -1971 3454 -2270 3978 -198 347 -368 644
-376 661 l-16 31 65 76 c35 42 69 76 74 76 5 0 15 -10 21 -22z m1016 -2715
c744 -1303 1355 -2376 1359 -2385 6 -17 -4 -18 -123 -18 l-129 0 -281 493
c-154 270 -743 1301 -1307 2291 -565 989 -1026 1802 -1024 1807 5 12 142 179
149 179 3 0 613 -1065 1356 -2367z m-413 -257 c663 -1161 1208 -2119 1211
-2128 7 -17 -3 -18 -122 -18 l-128 0 -1095 1918 -1095 1917 -3 230 c-2 203 0
228 13 211 8 -10 556 -969 1219 -2130z m-1043 847 c1221 -2139 1689 -2961
1695 -2976 6 -15 -4 -17 -108 -17 l-114 0 -829 1453 -830 1452 0 198 c0 108 2
197 5 197 3 0 85 -138 181 -307z m492 -1792 c367 -643 670 -1176 673 -1185 5
-14 -8 -16 -123 -16 l-129 0 -550 963 -549 962 -2 223 c-1 122 1 222 5 222 4
0 308 -526 675 -1169z m-284 -485 c215 -375 393 -690 397 -700 5 -14 -7 -16
-123 -16 l-129 0 -266 468 -266 467 -6 233 c-3 127 -4 232 -1 232 2 0 179
-308 394 -684z m-271 -504 c61 -109 112 -202 112 -205 0 -4 -34 -7 -75 -7 -83
0 -126 16 -147 53 -13 25 -23 357 -11 357 5 0 59 -89 121 -198z"/>
<path d="M3877 7559 c-22 -13 -3311 -3899 -3320 -3923 -11 -27 -9 -34 13 -56
20 -20 33 -20 1668 -20 1297 0 1652 3 1672 13 14 7 33 28 43 47 16 33 17 139
15 1965 -2 1497 -6 1936 -15 1958 -13 29 -43 35 -76 16z m-187 -2183 c-1
-1240 -3 -1534 -14 -1548 -17 -23 -59 -38 -107 -38 l-39 0 0 1519 0 1519 40
48 c22 26 50 54 62 61 20 11 25 10 41 -8 16 -20 17 -108 17 -1553z m-383 -203
l-2 -1378 -97 -3 -98 -3 0 1273 0 1273 91 108 c50 59 95 107 100 107 5 0 7
-613 6 -1377z m-419 -245 l-3 -1133 -97 -3 -98 -3 0 1025 0 1024 93 110 c50
61 95 111 100 111 4 1 6 -509 5 -1131z m-420 -250 l-3 -883 -87 -3 -88 -3 0
788 0 788 82 98 c45 53 86 97 90 97 5 0 7 -397 6 -882z m-398 -238 l0 -650
-100 0 -100 0 0 539 0 539 93 110 c50 61 95 111 100 111 4 1 7 -291 7 -649z
m-420 -245 l0 -405 -100 0 -100 0 0 288 c0 283 0 289 23 318 29 39 170 204
174 204 2 0 3 -182 3 -405z m-420 -250 l0 -155 -77 1 c-108 1 -127 8 -131 44
-2 25 14 49 98 148 55 64 103 117 105 117 3 0 5 -70 5 -155z"/>
</g>
</svg>
